<svg width="48" height="50" viewBox="0 0 48 50" fill="none" xmlns="http://www.w3.org/2000/svg">
<g filter="url(#filter0_d)">
<path d="M41.4628 18.2315C38.8915 17.5458 35.4264 20.4354 33.7 18.5988C31.6063 16.3704 36.4794 11.8278 35.9774 7.67708C35.5734 4.27321 31.6797 2.68148 27.8229 2.65699C24.7929 2.61356 21.785 3.17852 18.9773 4.31843C16.1696 5.45834 13.6191 7.15002 11.477 9.2933C3.34687 17.3622 1.59596 28.8839 9.79952 36.8181C17.4031 44.1645 30.137 41.9973 37.5569 35.1039C39.8511 32.8503 41.616 30.1152 42.7239 27.0962C44.0463 23.5454 44.1687 18.9662 41.4628 18.2315V18.2315ZM13.5095 12.942C14.1727 12.6817 14.9115 12.6909 15.568 12.9677C16.2246 13.2445 16.7469 13.767 17.0235 14.4236C17.1337 15.1273 16.9632 15.8462 16.5488 16.4255C16.1343 17.0049 15.509 17.3984 14.8074 17.5213C14.1444 17.785 13.4043 17.7774 12.7469 17.5002C12.0895 17.2231 11.5674 16.6985 11.2933 16.0398C11.1864 15.3365 11.3581 14.6193 11.7721 14.0407C12.186 13.4621 12.8093 13.0679 13.5095 12.942V12.942ZM8.20778 25.4923C8.09789 24.7867 8.27004 24.0663 8.68702 23.4866C9.10401 22.907 9.73234 22.5147 10.4362 22.3945C11.0977 22.1346 11.8347 22.1442 12.4893 22.4211C13.1438 22.698 13.6639 23.2203 13.938 23.876C14.0346 24.5736 13.858 25.2815 13.4451 25.8519C13.0321 26.4223 12.4147 26.8111 11.7218 26.9371C11.0629 27.1965 10.3291 27.191 9.67411 26.9217C9.01911 26.6524 8.49367 26.1402 8.20778 25.4923V25.4923ZM16.7787 35.6916C16.1157 35.9553 15.3756 35.9477 14.7182 35.6705C14.0608 35.3933 13.5387 34.8688 13.2646 34.2101C13.1574 33.5086 13.3275 32.7929 13.7389 32.2146C14.1503 31.6364 14.7706 31.241 15.4685 31.1123C16.1318 30.8519 16.8705 30.8611 17.5271 31.1379C18.1836 31.4147 18.706 31.9372 18.9826 32.5939C19.0364 32.9477 19.0199 33.3087 18.9338 33.6561C18.8478 34.0035 18.694 34.3305 18.4812 34.6183C18.2685 34.9062 18.001 35.1491 17.6941 35.3333C17.3872 35.5175 17.047 35.6393 16.693 35.6916H16.7787ZM20.3662 10.1137C20.2593 9.41036 20.431 8.6931 20.8449 8.11454C21.2589 7.53597 21.8822 7.14179 22.5824 7.0159C23.2459 6.75874 23.9833 6.76952 24.639 7.04596C25.2947 7.32241 25.8173 7.84287 26.0964 8.49743C26.2063 9.20298 26.0342 9.92344 25.6172 10.5031C25.2002 11.0827 24.5719 11.475 23.868 11.5952C23.2068 11.8584 22.4685 11.8504 21.813 11.5731C21.1576 11.2958 20.6378 10.7715 20.3662 10.1137V10.1137ZM27.4923 37.2834C26.8293 37.547 26.0892 37.5394 25.4318 37.2622C24.7744 36.9851 24.2523 36.4605 23.9782 35.8018C23.8713 35.0985 24.043 34.3813 24.457 33.8027C24.8709 33.2241 25.4942 32.8299 26.1944 32.704C26.8579 32.4469 27.5954 32.4577 28.251 32.7341C28.9067 33.0106 29.4293 33.531 29.7084 34.1856C29.8176 34.8966 29.6405 35.6218 29.2159 36.2025C28.7913 36.7831 28.1539 37.1718 27.4433 37.2834H27.4923ZM33.6143 24.476C33.2362 25.4394 32.4924 26.2141 31.5451 26.631C31.0048 26.8692 30.4214 26.9942 29.8309 26.9983C29.1883 27.0194 28.5529 26.8582 27.9981 26.5331C27.4434 26.2081 26.9921 25.7326 26.6964 25.1617C26.5135 24.7816 26.4114 24.3678 26.3967 23.9463C26.3819 23.5247 26.4548 23.1048 26.6107 22.7129C26.9888 21.7494 27.7326 20.9747 28.6799 20.5579C29.5272 20.1185 30.5122 20.0262 31.4264 20.3004C32.3406 20.5747 33.1121 21.194 33.5776 22.0272C33.745 22.4158 33.8314 22.8345 33.8314 23.2577C33.8314 23.6809 33.745 24.0996 33.5776 24.4882L33.6143 24.476Z" fill="white"/>
</g>
<defs>
<filter id="filter0_d" x="-2" y="0" width="52.0788" height="52.0788" filterUnits="userSpaceOnUse" color-interpolation-filters="sRGB">
<feFlood flood-opacity="0" result="BackgroundImageFix"/>
<feColorMatrix in="SourceAlpha" type="matrix" values="0 0 0 0 0 0 0 0 0 0 0 0 0 0 0 0 0 0 127 0"/>
<feOffset dy="4"/>
<feGaussianBlur stdDeviation="2"/>
<feColorMatrix type="matrix" values="0 0 0 0 0 0 0 0 0 0 0 0 0 0 0 0 0 0 0.25 0"/>
<feBlend mode="normal" in2="BackgroundImageFix" result="effect1_dropShadow"/>
<feBlend mode="normal" in="SourceGraphic" in2="effect1_dropShadow" result="shape"/>
</filter>
</defs>
</svg>
