<svg width="65" height="55" viewBox="0 0 65 55" fill="none" xmlns="http://www.w3.org/2000/svg">
<g filter="url(#filter0_d)">
<path d="M59.9722 37.0905C59.8018 38.9407 59.1097 40.704 57.9769 42.174C56.8442 43.644 55.3176 44.7599 53.5759 45.3911C51.8341 46.0224 49.9492 46.1428 48.1416 45.7384C46.3341 45.3341 44.6788 44.4215 43.3693 43.1077C42.0598 41.7938 41.1503 40.1329 40.7472 38.3193C40.3442 36.5058 40.4643 34.6145 41.0934 32.8669C41.7226 31.1193 42.8347 29.5877 44.2998 28.4511C45.7649 27.3146 47.5223 26.6202 49.3663 26.4492C48.2867 27.9147 47.7672 29.7204 47.9023 31.5377C48.0373 33.3551 48.818 35.0634 50.1024 36.352C51.3867 37.6407 53.0893 38.424 54.9006 38.5595C56.7119 38.695 58.5116 38.1738 59.9722 37.0905V37.0905Z" stroke="white" stroke-width="2" stroke-linecap="round" stroke-linejoin="round"/>
</g>
<g filter="url(#filter1_d)">
<line y1="-0.5" x2="40.2439" y2="-0.5" transform="matrix(0.610169 -0.792271 0.790296 0.612726 22.7777 40.5797)" stroke="#BDBDBD"/>
</g>
<g filter="url(#filter2_d)">
<path d="M17 18.4782C19.9916 18.4782 22.4167 16.045 22.4167 13.0434C22.4167 10.0419 19.9916 7.60864 17 7.60864C14.0085 7.60864 11.5834 10.0419 11.5834 13.0434C11.5834 16.045 14.0085 18.4782 17 18.4782Z" stroke="white" stroke-width="2" stroke-linecap="round" stroke-linejoin="round"/>
<path d="M17 1.08691V3.26083" stroke="white" stroke-width="2" stroke-linecap="round" stroke-linejoin="round"/>
<path d="M17 22.826V25" stroke="white" stroke-width="2" stroke-linecap="round" stroke-linejoin="round"/>
<path d="M8.57168 4.58691L10.11 6.13039" stroke="white" stroke-width="2" stroke-linecap="round" stroke-linejoin="round"/>
<path d="M23.89 19.9565L25.4283 21.5" stroke="white" stroke-width="2" stroke-linecap="round" stroke-linejoin="round"/>
<path d="M5.08335 13.0435H7.25002" stroke="white" stroke-width="2" stroke-linecap="round" stroke-linejoin="round"/>
<path d="M26.75 13.0435H28.9167" stroke="white" stroke-width="2" stroke-linecap="round" stroke-linejoin="round"/>
<path d="M8.57168 21.5L10.11 19.9565" stroke="white" stroke-width="2" stroke-linecap="round" stroke-linejoin="round"/>
<path d="M23.89 6.13039L25.4283 4.58691" stroke="white" stroke-width="2" stroke-linecap="round" stroke-linejoin="round"/>
</g>
<defs>
<filter id="filter0_d" x="33.2221" y="23.1884" width="34" height="34.087" filterUnits="userSpaceOnUse" color-interpolation-filters="sRGB">
<feFlood flood-opacity="0" result="BackgroundImageFix"/>
<feColorMatrix in="SourceAlpha" type="matrix" values="0 0 0 0 0 0 0 0 0 0 0 0 0 0 0 0 0 0 127 0"/>
<feOffset dy="4"/>
<feGaussianBlur stdDeviation="2"/>
<feColorMatrix type="matrix" values="0 0 0 0 0 0 0 0 0 0 0 0 0 0 0 0 0 0 0.25 0"/>
<feBlend mode="normal" in2="BackgroundImageFix" result="effect1_dropShadow"/>
<feBlend mode="normal" in="SourceGraphic" in2="effect1_dropShadow" result="shape"/>
</filter>
<filter id="filter1_d" x="17.9874" y="8.08289" width="33.3458" height="40.4968" filterUnits="userSpaceOnUse" color-interpolation-filters="sRGB">
<feFlood flood-opacity="0" result="BackgroundImageFix"/>
<feColorMatrix in="SourceAlpha" type="matrix" values="0 0 0 0 0 0 0 0 0 0 0 0 0 0 0 0 0 0 127 0"/>
<feOffset dy="4"/>
<feGaussianBlur stdDeviation="2"/>
<feColorMatrix type="matrix" values="0 0 0 0 0 0 0 0 0 0 0 0 0 0 0 0 0 0 0.25 0"/>
<feBlend mode="normal" in2="BackgroundImageFix" result="effect1_dropShadow"/>
<feBlend mode="normal" in="SourceGraphic" in2="effect1_dropShadow" result="shape"/>
</filter>
<filter id="filter2_d" x="0" y="0" width="34" height="34.087" filterUnits="userSpaceOnUse" color-interpolation-filters="sRGB">
<feFlood flood-opacity="0" result="BackgroundImageFix"/>
<feColorMatrix in="SourceAlpha" type="matrix" values="0 0 0 0 0 0 0 0 0 0 0 0 0 0 0 0 0 0 127 0"/>
<feOffset dy="4"/>
<feGaussianBlur stdDeviation="2"/>
<feColorMatrix type="matrix" values="0 0 0 0 0 0 0 0 0 0 0 0 0 0 0 0 0 0 0.25 0"/>
<feBlend mode="normal" in2="BackgroundImageFix" result="effect1_dropShadow"/>
<feBlend mode="normal" in="SourceGraphic" in2="effect1_dropShadow" result="shape"/>
</filter>
</defs>
</svg>
