<svg width="40" height="40" viewBox="0 0 40 40" fill="none" xmlns="http://www.w3.org/2000/svg">
<g filter="url(#filter0_d)">
<path d="M7.16667 3.16667H18.25V0H7.16667C5.425 0 4 1.425 4 3.16667V14.25H7.16667V3.16667ZM16.6667 17.4167L10.3333 25.3333H29.3333L24.5833 19L21.3692 23.2908L16.6667 17.4167ZM27.75 10.2917C27.75 8.9775 26.6892 7.91667 25.375 7.91667C24.0608 7.91667 23 8.9775 23 10.2917C23 11.6058 24.0608 12.6667 25.375 12.6667C26.6892 12.6667 27.75 11.6058 27.75 10.2917ZM32.5 0H21.4167V3.16667H32.5V14.25H35.6667V3.16667C35.6667 1.425 34.2417 0 32.5 0ZM32.5 28.5H21.4167V31.6667H32.5C34.2417 31.6667 35.6667 30.2417 35.6667 28.5V17.4167H32.5V28.5ZM7.16667 17.4167H4V28.5C4 30.2417 5.425 31.6667 7.16667 31.6667H18.25V28.5H7.16667V17.4167Z" fill="white"/>
</g>
<defs>
<filter id="filter0_d" x="0" y="0" width="39.6667" height="39.6667" filterUnits="userSpaceOnUse" color-interpolation-filters="sRGB">
<feFlood flood-opacity="0" result="BackgroundImageFix"/>
<feColorMatrix in="SourceAlpha" type="matrix" values="0 0 0 0 0 0 0 0 0 0 0 0 0 0 0 0 0 0 127 0"/>
<feOffset dy="4"/>
<feGaussianBlur stdDeviation="2"/>
<feColorMatrix type="matrix" values="0 0 0 0 0 0 0 0 0 0 0 0 0 0 0 0 0 0 0.25 0"/>
<feBlend mode="normal" in2="BackgroundImageFix" result="effect1_dropShadow"/>
<feBlend mode="normal" in="SourceGraphic" in2="effect1_dropShadow" result="shape"/>
</filter>
</defs>
</svg>
